<svg xmlns:xlink="http://www.w3.org/1999/xlink" width="28" height="28" xmlns="http://www.w3.org/2000/svg"><g fill="none" fill-rule="evenodd"><path d="M0 0h28v28H0z" fill="none"></path><path d="M12.658 2.333h-7a3.324 3.324 0 00-3.325 3.325v5.528a3.324 3.324 0 003.325 3.325h7a3.324 3.324 0 003.325-3.325V5.658a3.324 3.324 0 00-3.325-3.325zm-7 1.984h7c.742 0 1.342.6 1.342 1.341v5.528c0 .741-.6 1.342-1.342 1.342h-7a1.34 1.34 0 01-1.341-1.342V5.658c0-.741.6-1.341 1.341-1.341zm18.667-1.984a.992.992 0 01.124 1.976l-.124.008h-3.359c-.692 0-1.26.522-1.334 1.195l-.008.146v5.528c0 .692.523 1.261 1.196 1.334l.146.008h3.359a.992.992 0 01.124 1.975l-.124.008h-3.359a3.324 3.324 0 01-3.32-3.13l-.005-.195V5.658a3.324 3.324 0 013.13-3.319l.195-.006h3.359zm-11.667 14a3.324 3.324 0 013.32 3.13l.005.195v4.667a.992.992 0 01-1.975.124L14 24.325v-4.667a1.34 1.34 0 00-1.195-1.333l-.147-.008h-7a1.34 1.34 0 00-1.333 1.195l-.008.146v4.667a.992.992 0 01-1.976.124l-.008-.124v-4.667a3.324 3.324 0 013.13-3.319l.195-.006h7zm11.667 0a.992.992 0 01.124 1.976l-.124.008h-3.5a1.34 1.34 0 00-1.334 1.195l-.008.146v4.667a.992.992 0 01-1.975.124l-.008-.124v-4.667a3.324 3.324 0 013.13-3.319l.195-.006h3.5z" fill="#FFFFFF"></path></g></svg>