<svg width="160" height="46" viewBox="0 0 160 46" xmlns="http://www.w3.org/2000/svg">
    <g fill-rule="nonzero" fill="none">
        <path d="M41.631 0h7.284v46h-7.284V0zm32.78 31.326c0 7.04-5.86 7.601-7.602 7.601-4.354 0-5.146-4.118-5.146-6.602V14.72h-7.284v17.568c0 4.361 1.354 7.96 3.73 10.36 2.097 2.121 5.24 3.28 8.646 3.28 2.414 0 5.834-.76 7.655-2.44V46h7.284V14.72H74.41v16.606zM96.262 3.68h-7.284v11.04h-5.463v7.36h5.463V46h7.284V22.08h5.463v-7.36h-5.463V3.68zm28.403 32.967c-1.586 1.441-3.68 2.24-5.979 2.24-5.066 0-8.786-3.76-8.786-8.92 0-5.162 3.602-8.763 8.786-8.763 2.259 0 4.393.76 6.02 2.2l1.104.961 4.912-4.96-1.23-1.12c-2.89-2.638-6.726-4.117-10.807-4.117-9.106 0-15.718 6.639-15.718 15.76 0 9.082 6.77 15.958 15.718 15.958 4.157 0 8.034-1.48 10.888-4.158l1.187-1.121-4.988-4.957-1.107.997zm32.056-19.2c-2.098-2.12-4.556-3.279-7.962-3.279-2.414 0-5.15.76-6.97 2.438V0h-7.285v46h7.284V28.768c0-7.04 4.95-7.599 6.693-7.599 4.354 0 4.234 4.12 4.234 6.6V46H160V27.808c0-4.36-.901-7.96-3.278-10.361" fill="#17313B"/>
        <path d="M118.447 24.726c2.909 0 5.267 2.382 5.267 5.321 0 2.94-2.358 5.321-5.267 5.321-2.909 0-5.266-2.382-5.266-5.32 0-2.94 2.357-5.322 5.266-5.322" fill="#FF3D2E"/>
        <path d="M31.433 34.447c-2.77 2.88-6.532 4.44-10.49 4.44-8.115 0-14.016-6.44-14.016-15.28 0-8.88 5.9-15.32 14.015-15.32 3.92 0 7.641 1.559 10.453 4.4l1.107 1.12 4.87-4.92-1.07-1.12c-4.036-4.201-9.5-6.479-15.36-6.479C8.987 1.288 0 10.888 0 23.646c0 12.72 9.027 22.28 20.942 22.28 5.9 0 11.364-2.318 15.4-6.519l1.07-1.12-4.83-5-1.149 1.16z" fill="#17313B"/>
    </g>
</svg>
