<svg width="24" height="24" xmlns="http://www.w3.org/2000/svg">
    <g fill="none" fill-rule="evenodd">
        <path d="M18.356 5.68 23 3.889v6.606l-4.644 1.888V5.681zm-6.004 5.05.094-6.842 5.02 2.029v7.079l-5.114-2.266zm1.876-7.22L17.746 2l3.518 1.51-3.8 1.416-3.236-1.416zM7.051 5.917l4.644-1.746v6.56l-4.644 1.887V5.917zM1 11.013l.14-6.842 5.02 1.982v7.126L1 11.013zm1.876-7.22 3.519-1.557 3.518 1.557L6.16 5.162 2.876 3.793zm9.945 11.892 4.644-1.793v6.607l-4.644 1.887v-6.7zm-6.004 5.05.094-6.843 5.019 2.03V23l-5.113-2.265zm1.876-7.22 3.518-1.51 3.518 1.51-3.8 1.415-3.236-1.416z" fill="#F7A80D" fill-rule="nonzero"/>
    </g>
</svg>
