<svg xmlns="http://www.w3.org/2000/svg" xmlns:xlink="http://www.w3.org/1999/xlink" width="16" height="16" viewBox="0 0 24 24"><defs><path id="page-down_svg__a" d="M15.316 19a.633.633 0 01-.429-.175l-6.632-6.22A.855.855 0 018 11.983a.85.85 0 01.255-.62l6.604-6.187c.294-.276.724-.221.96.122.237.343.19.845-.104 1.12l-5.94 5.565 5.97 5.6c.294.275.34.777.104 1.12a.652.652 0 01-.533.297z"></path><path id="page-down_svg__a" d="M15.316 19a.633.633 0 01-.429-.175l-6.632-6.22A.855.855 0 018 11.983a.85.85 0 01.255-.62l6.604-6.187c.294-.276.724-.221.96.122.237.343.19.845-.104 1.12l-5.94 5.565 5.97 5.6c.294.275.34.777.104 1.12a.652.652 0 01-.533.297z"></path></defs><g fill="none" fill-rule="evenodd"><path d="M0 0h24v24H0z" fill="none"></path><use fill="#202B50" fill-rule="nonzero" transform="rotate(-90 12 12)" xlink:href="#page-down_svg__a"></use></g></svg>