<svg width="24" height="24" viewBox="0 0 24 24" xmlns="http://www.w3.org/2000/svg">
    <path d="M16.142 14.087a.743.743 0 0 0-.224.663l.623 3.367a.732.732 0 0 1-.315.738.785.785 0 0 1-.82.055l-3.099-1.58a.806.806 0 0 0-.35-.09h-.19a.577.577 0 0 0-.189.062l-3.1 1.588c-.154.075-.327.102-.497.075a.762.762 0 0 1-.623-.87l.623-3.366a.755.755 0 0 0-.223-.67L5.23 11.665a.727.727 0 0 1-.188-.773.781.781 0 0 1 .622-.513l3.479-.494a.778.778 0 0 0 .616-.416l1.532-3.072a.713.713 0 0 1 .14-.185l.063-.048a.468.468 0 0 1 .113-.089l.076-.027.12-.048h.294c.263.027.495.18.616.41l1.553 3.059c.112.223.33.379.58.416l3.48.494a.79.79 0 0 1 .636.513.732.732 0 0 1-.203.773l-2.617 2.422z" fill="#04A8F5" fill-rule="evenodd"/>
</svg>
