<svg xmlns:xlink="http://www.w3.org/1999/xlink" width="32" height="32" xmlns="http://www.w3.org/2000/svg"><path d="M21.522 18.782a.99.99 0 00-.297.885l.83 4.488a.976.976 0 01-.42.986 1.05 1.05 0 01-1.093.073l-4.133-2.108a1.074 1.074 0 00-.466-.12h-.253a.77.77 0 00-.252.083l-4.134 2.117c-.205.1-.436.136-.663.1a1.016 1.016 0 01-.83-1.159l.83-4.488a1.007 1.007 0 00-.298-.893l-3.37-3.193a.97.97 0 01-.25-1.03c.125-.362.444-.625.83-.685l4.637-.658c.353-.035.663-.245.821-.555l2.044-4.096a.951.951 0 01.187-.246l.084-.064a.624.624 0 01.15-.119l.102-.036.158-.064h.393c.351.036.66.24.822.547l2.07 4.078c.15.298.44.505.775.555l4.638.658c.392.055.72.32.85.684a.976.976 0 01-.271 1.031l-3.49 3.23z" fill="#DB0202" fill-rule="evenodd"></path></svg>