<svg xmlns:xlink="http://www.w3.org/1999/xlink" width="28" height="28" xmlns="http://www.w3.org/2000/svg"><g fill="none" fill-rule="evenodd"><path d="M0 0h28v28H0z" fill="none"></path><path d="M22.286 14.725l.07.12 1.023 1.959 2.288.314c1.07.148 1.526 1.354.844 2.11l-.092.093-1.652 1.52.39 2.148c.184 1.014-.888 1.793-1.854 1.412l-.115-.051-2.049-1.018-2.047 1.017c-.956.478-2.072-.245-1.987-1.24l.016-.12.39-2.148-1.652-1.52c-.778-.717-.396-1.946.621-2.179l.13-.024 2.288-.314 1.023-1.958c.476-.917 1.813-.957 2.365-.121zm-14.278 0l.07.12 1.023 1.958 2.288.315c1.07.148 1.526 1.354.843 2.11l-.091.093-1.653 1.52.39 2.148c.184 1.014-.887 1.793-1.853 1.412l-.116-.051-2.049-1.018-2.046 1.017c-.957.478-2.073-.245-1.987-1.24l.016-.12.39-2.147L1.58 19.32c-.778-.717-.395-1.946.622-2.179l.13-.024 2.287-.314 1.023-1.958c.477-.917 1.813-.957 2.366-.121zm13.13.895l-1.108 2.124a.719.719 0 01-.448.357l-.099.02-2.469.34 1.783 1.64a.675.675 0 01.221.52l-.01.096-.423 2.322 2.218-1.1.07-.03.029-.01.068-.018.033-.007.103-.012h.067l.102.012.101.025.1.04 2.216 1.1-.422-2.322a.667.667 0 01.143-.543l.068-.072 1.782-1.641-2.468-.34a.732.732 0 01-.495-.293l-.052-.084-1.11-2.124zM6.86 15.619l-1.109 2.125a.719.719 0 01-.447.357l-.1.02-2.468.34L4.52 20.1a.675.675 0 01.22.52l-.01.096-.421 2.322 2.216-1.1.071-.03.028-.01.069-.018.033-.007.102-.012h.067l.103.012.101.025.028.01.071.03 2.216 1.1-.421-2.322a.667.667 0 01.142-.543l.069-.072 1.781-1.641-2.467-.34a.732.732 0 01-.496-.293l-.051-.084-1.11-2.125zm8.288-10.354l.07.12 1.023 1.958 2.287.314c1.07.147 1.526 1.353.843 2.11l-.09.093-1.654 1.52.39 2.148c.184 1.014-.887 1.793-1.853 1.412l-.115-.051L14 13.872l-2.047 1.017c-.956.478-2.072-.245-1.987-1.24l.016-.12.39-2.147L8.72 9.86c-.778-.716-.396-1.945.622-2.178l.13-.024 2.287-.314 1.023-1.959c.476-.916 1.813-.956 2.365-.12zm-1.147.894l-1.108 2.125a.719.719 0 01-.447.357l-.1.02-2.47.34 1.783 1.64a.675.675 0 01.221.519l-.01.097-.422 2.322 2.217-1.1.07-.03.096-.03.1-.016.102-.002.103.011.101.026.1.04 2.215 1.1-.421-2.322a.667.667 0 01.143-.543l.068-.073L18.124 9l-2.467-.339a.732.732 0 01-.495-.293l-.052-.084L14 6.16z" fill="#81879A"></path></g></svg>